# xmcd
#
# Track frame offsets: 
#        150
#        12867
#        30105
#        45362
#        48652
#        63960
#        65715
#        76147
#        89070
#        94645
#        111005
#        122335
#        133580
#        148795
#        162905
#        179747
#        190320
#        201782
#
# Disc length: 2954 seconds
#
# Revision: 1
# Processed by: cddbd v1.5.2PL0 Copyright (c) Steve Scherf et al.
# Submitted via: ExactAudioCopy v1.3
#
DISCID=f20b8812
DTITLE=Andrea Menard - The Velvet Devil
DYEAR=1998
DGENRE=Jazz
TTITLE0=The Velvet Devil
TTITLE1=Sonny Makes Me Sunny
TTITLE2=If I Were a Man
TTITLE3=The Radio
TTITLE4=Call My Name
TTITLE5=Queen of the Parade
TTITLE6=It's in the Bag
TTITLE7=Looking for a Mate
TTITLE8=Fly to You
TTITLE9=Like Everybody Else
TTITLE10=Look Up, Boys
TTITLE11=Ouch
TTITLE12=Oh, Mama
TTITLE13=Halfbreed Blues
TTITLE14=The Mother Song
TTITLE15=Angel Wings
TTITLE16=Pinch to Grow an Inch
TTITLE17=Don't Need a Devil
EXTD=YEAR: 1998
EXTT0=
EXTT1=
EXTT2=
EXTT3=
EXTT4=
EXTT5=
EXTT6=
EXTT7=
EXTT8=
EXTT9=
EXTT10=
EXTT11=
EXTT12=
EXTT13=
EXTT14=
EXTT15=
EXTT16=
EXTT17=
PLAYORDER=
